<svg version="1.2" xmlns="http://www.w3.org/2000/svg" viewBox="0 0 258 257" width="258" height="257"><defs><linearGradient id="P" gradientUnits="userSpaceOnUse"/><linearGradient id="g1" x2="1" href="#P" gradientTransform="matrix(149.665,161.43,-157.169,145.715,-1.117,45.637)"><stop stop-color="#41d1ff"/><stop offset="1" stop-color="#bd34fe"/></linearGradient><linearGradient id="g2" x2="1" href="#P" gradientTransform="matrix(8.147,185.723,-104.971,4.605,140.244,4.799)"><stop stop-color="#ffea83"/><stop offset=".08" stop-color="#ffdd35"/><stop offset="1" stop-color="#ffa800"/></linearGradient></defs><style>.a{fill:url(#g1)}.b{fill:url(#g2)}</style><path class="a" d="m256.2 37.9l-120.3 215.1c-2.5 4.4-8.9 4.4-11.4 0l-122.6-215c-2.8-4.9 1.3-10.7 6.8-9.7l120.4 21.5q0.3 0.1 0.6 0.1 0.3 0 0.5 0 0.3 0 0.6 0 0.3 0 0.6-0.1l117.9-21.5c5.4-1 9.6 4.8 6.9 9.6z"/><path class="b" d="m186.4 0.1l-89 17.4q-0.5 0.1-1 0.4-0.4 0.2-0.8 0.7-0.3 0.4-0.6 0.9-0.2 0.5-0.2 1l-5.5 92.5q0 0.7 0.3 1.5 0.3 0.7 0.9 1.2 0.6 0.5 1.3 0.6 0.8 0.2 1.5 0l24.8-5.7c2.3-0.5 4.4 1.5 3.9 3.9l-7.3 36c-0.5 2.4 1.8 4.5 4.1 3.8l15.3-4.7c2.4-0.7 4.7 1.4 4.2 3.8l-11.7 56.7c-0.7 3.5 4 5.4 5.9 2.4l1.3-2 72.6-144.8c1.2-2.4-0.9-5.1-3.6-4.6l-25.5 4.9c-2.4 0.5-4.4-1.8-3.7-4.1l16.6-57.7c0.7-2.4-1.4-4.6-3.8-4.1z"/></svg>